<svg width="228" height="55" viewBox="0 0 228 55" fill="none" xmlns="http://www.w3.org/2000/svg">
<rect width="228" height="55" fill="white"/>
<path d="M133.438 17.25H128.297L133.25 28.5C133.885 29.9792 134.344 31.2292 134.625 32.25C134.906 31.2292 135.365 29.9792 136 28.5L140.938 17.25H136.562V12.25H149.688V17.25H146.375L135.938 41C135.396 42.2292 134.906 43.2865 134.469 44.1719C134.042 45.0677 133.557 45.974 133.016 46.8906C132.484 47.8177 131.969 48.599 131.469 49.2344C130.969 49.8698 130.401 50.474 129.766 51.0469C129.141 51.6198 128.49 52.0729 127.812 52.4062C127.135 52.75 126.385 53.0156 125.562 53.2031C124.74 53.401 123.854 53.5 122.906 53.5C122.021 53.5 121.24 53.4271 120.562 53.2812C119.885 53.1458 119.307 52.9375 118.828 52.6562C118.359 52.3854 117.969 52.0885 117.656 51.7656C117.344 51.4531 117.047 51.0781 116.766 50.6406C116.214 49.8073 115.938 48.8854 115.938 47.875C115.938 46.4896 116.422 45.3073 117.391 44.3281C118.37 43.3594 119.552 42.875 120.938 42.875C122.323 42.875 123.5 43.3594 124.469 44.3281C125.448 45.3073 125.938 46.4896 125.938 47.875C125.938 48.1667 125.911 48.4479 125.859 48.7188C125.901 48.7292 125.938 48.7344 125.969 48.7344C126.719 48.7344 127.635 47.4948 128.719 45.0156L129.891 42.3281L118.875 17.25H115.938V12.25H133.438V17.25ZM67.4219 11.5312C69.8594 11.5312 71.9271 12.1562 73.625 13.4062C75.3229 14.6562 76.5833 16.401 77.4062 18.6406C78.2396 20.8802 78.6562 23.5469 78.6562 26.6406C78.6562 28.901 78.3594 30.9688 77.7656 32.8438C77.1823 34.7188 76.3594 36.3021 75.2969 37.5938C74.2448 38.875 72.9688 39.8698 71.4688 40.5781C69.9792 41.276 68.3438 41.625 66.5625 41.625C65.6667 41.625 64.8229 41.5417 64.0312 41.375C63.2396 41.2188 62.5625 41.0208 62 40.7812C61.4479 40.5417 60.9219 40.2448 60.4219 39.8906C59.9219 39.5365 59.5156 39.2031 59.2031 38.8906C58.901 38.5781 58.6042 38.2292 58.3125 37.8438V46H61.4375V51H46.4375V46H49.5625V17.25H46.4375V12.25H55.7188L57.6094 15.8906C58.0156 15.3177 58.4792 14.7969 59 14.3281C61.0625 12.4635 63.8698 11.5312 67.4219 11.5312ZM102.797 11.5312C105.234 11.5312 107.302 12.1562 109 13.4062C110.698 14.6562 111.958 16.401 112.781 18.6406C113.615 20.8802 114.031 23.5469 114.031 26.6406C114.031 28.901 113.734 30.9688 113.141 32.8438C112.557 34.7188 111.734 36.3021 110.672 37.5938C109.62 38.875 108.344 39.8698 106.844 40.5781C105.354 41.276 103.719 41.625 101.938 41.625C101.042 41.625 100.198 41.5417 99.4062 41.375C98.6146 41.2188 97.9375 41.0208 97.375 40.7812C96.8229 40.5417 96.2969 40.2448 95.7969 39.8906C95.2969 39.5365 94.8906 39.2031 94.5781 38.8906C94.276 38.5781 93.9792 38.2292 93.6875 37.8438V46H96.8125V51H81.8125V46H84.9375V17.25H81.8125V12.25H91.0938L92.9844 15.8906C93.3906 15.3177 93.8542 14.7969 94.375 14.3281C96.4375 12.4635 99.2448 11.5312 102.797 11.5312ZM151.562 31.3125C152.948 31.3125 154.125 31.8021 155.094 32.7812C156.073 33.75 156.562 34.9271 156.562 36.3125C156.562 37.6979 156.073 38.8802 155.094 39.8594C154.125 40.8281 152.948 41.3125 151.562 41.3125C150.177 41.3125 148.995 40.8281 148.016 39.8594C147.047 38.8802 146.562 37.6979 146.562 36.3125C146.562 34.9271 147.047 33.75 148.016 32.7812C148.995 31.8021 150.177 31.3125 151.562 31.3125ZM41.3906 36H45.1875V41H25.1875V36H30.1875L27.9688 31H13.8438L11.7656 36H21.4375V41H1.4375V36H5.51562L19.5625 2.25H26.4375L41.3906 36ZM199.016 36H202.812V41H182.812V36H187.812L185.594 31H171.469L169.391 36H179.062V41H159.062V36H163.141L177.188 2.25H184.062L199.016 36ZM225.938 7.25H220.938V36H225.938V41H205.938V36H210.938V7.25H205.938V2.25H225.938V7.25ZM63.3594 17.25C62.3177 17.25 61.3906 17.5417 60.5781 18.125C59.776 18.6979 59.0208 19.5521 58.3125 20.6875V32.5469C59.5 34.7344 61.1146 35.8281 63.1562 35.8281C65.2188 35.8281 66.75 35.0208 67.75 33.4062C68.7604 31.7917 69.2656 29.5 69.2656 26.5312C69.2656 25.1354 69.099 23.849 68.7656 22.6719C68.4427 21.4844 68.0052 20.5 67.4531 19.7188C66.9115 18.9375 66.2865 18.3333 65.5781 17.9062C64.8698 17.4688 64.1302 17.25 63.3594 17.25ZM98.7344 17.25C97.6927 17.25 96.7656 17.5417 95.9531 18.125C95.151 18.6979 94.3958 19.5521 93.6875 20.6875V32.5469C94.875 34.7344 96.4896 35.8281 98.5312 35.8281C100.594 35.8281 102.125 35.0208 103.125 33.4062C104.135 31.7917 104.641 29.5 104.641 26.5312C104.641 25.1354 104.474 23.849 104.141 22.6719C103.818 21.4844 103.38 20.5 102.828 19.7188C102.286 18.9375 101.661 18.3333 100.953 17.9062C100.245 17.4688 99.5052 17.25 98.7344 17.25ZM20.6875 13.875C20.2812 15.3125 19.9062 16.4375 19.5625 17.25L15.9219 26H25.75L21.875 17.25C21.375 16.1042 20.9792 14.9792 20.6875 13.875ZM178.312 13.875C177.906 15.3125 177.531 16.4375 177.188 17.25L173.547 26H183.375L179.5 17.25C179 16.1042 178.604 14.9792 178.312 13.875Z" fill="black"/>
</svg>
