<svg width="116" height="28" viewBox="0 0 116 28" fill="none" xmlns="http://www.w3.org/2000/svg">
<rect width="116" height="28" fill="white"/>
<path d="M13.1562 1.625H16.5938L24.0703 18.5H25.9688V21H15.9688V18.5H18.4688L17.3594 16H10.2969L9.25781 18.5H14.0938V21H4.09375V18.5H6.13281L13.1562 1.625ZM11.3359 13.5H16.25L14.3125 9.125C14.0625 8.55208 13.8646 7.98958 13.7188 7.4375C13.5156 8.15625 13.3281 8.71875 13.1562 9.125L11.3359 13.5ZM37.0859 6.26562C38.3047 6.26562 39.3385 6.57812 40.1875 7.20312C41.0365 7.82812 41.6667 8.70052 42.0781 9.82031C42.4948 10.9401 42.7031 12.2734 42.7031 13.8203C42.7031 14.9505 42.5547 15.9844 42.2578 16.9219C41.9661 17.8594 41.5547 18.651 41.0234 19.2969C40.4974 19.9375 39.8594 20.4349 39.1094 20.7891C38.3646 21.138 37.5469 21.3125 36.6562 21.3125C36.2083 21.3125 35.7865 21.2708 35.3906 21.1875C34.9948 21.1094 34.6562 21.0104 34.375 20.8906C34.099 20.7708 33.8359 20.6224 33.5859 20.4453C33.3359 20.2682 33.1328 20.1016 32.9766 19.9453C32.8255 19.7891 32.6771 19.6146 32.5312 19.4219V23.5H34.0938V26H26.5938V23.5H28.1562V9.125H26.5938V6.625H31.2344L32.1797 8.44531C32.3828 8.15885 32.6146 7.89844 32.875 7.66406C33.9062 6.73177 35.3099 6.26562 37.0859 6.26562ZM32.5312 16.7734C33.125 17.8672 33.9323 18.4141 34.9531 18.4141C35.9844 18.4141 36.75 18.0104 37.25 17.2031C37.7552 16.3958 38.0078 15.25 38.0078 13.7656C38.0078 13.0677 37.9245 12.4245 37.7578 11.8359C37.5964 11.2422 37.3776 10.75 37.1016 10.3594C36.8307 9.96875 36.5182 9.66667 36.1641 9.45312C35.8099 9.23438 35.4401 9.125 35.0547 9.125C34.5339 9.125 34.0703 9.27083 33.6641 9.5625C33.263 9.84896 32.8854 10.276 32.5312 10.8438V16.7734ZM54.7734 6.26562C55.9922 6.26562 57.026 6.57812 57.875 7.20312C58.724 7.82812 59.3542 8.70052 59.7656 9.82031C60.1823 10.9401 60.3906 12.2734 60.3906 13.8203C60.3906 14.9505 60.2422 15.9844 59.9453 16.9219C59.6536 17.8594 59.2422 18.651 58.7109 19.2969C58.1849 19.9375 57.5469 20.4349 56.7969 20.7891C56.0521 21.138 55.2344 21.3125 54.3438 21.3125C53.8958 21.3125 53.474 21.2708 53.0781 21.1875C52.6823 21.1094 52.3438 21.0104 52.0625 20.8906C51.7865 20.7708 51.5234 20.6224 51.2734 20.4453C51.0234 20.2682 50.8203 20.1016 50.6641 19.9453C50.513 19.7891 50.3646 19.6146 50.2188 19.4219V23.5H51.7812V26H44.2812V23.5H45.8438V9.125H44.2812V6.625H48.9219L49.8672 8.44531C50.0703 8.15885 50.3021 7.89844 50.5625 7.66406C51.5938 6.73177 52.9974 6.26562 54.7734 6.26562ZM50.2188 16.7734C50.8125 17.8672 51.6198 18.4141 52.6406 18.4141C53.6719 18.4141 54.4375 18.0104 54.9375 17.2031C55.4427 16.3958 55.6953 15.25 55.6953 13.7656C55.6953 13.0677 55.612 12.4245 55.4453 11.8359C55.2839 11.2422 55.0651 10.75 54.7891 10.3594C54.5182 9.96875 54.2057 9.66667 53.8516 9.45312C53.4974 9.23438 53.1276 9.125 52.7422 9.125C52.2214 9.125 51.7578 9.27083 51.3516 9.5625C50.9505 9.84896 50.5729 10.276 50.2188 10.8438V16.7734ZM61.7578 25.8203C61.4818 25.4036 61.3438 24.9427 61.3438 24.4375C61.3438 23.7448 61.5859 23.1536 62.0703 22.6641C62.5599 22.1797 63.151 21.9375 63.8438 21.9375C64.5365 21.9375 65.125 22.1797 65.6094 22.6641C66.099 23.1536 66.3438 23.7448 66.3438 24.4375C66.3438 24.5833 66.3307 24.724 66.3047 24.8594C66.3255 24.8646 66.3438 24.8672 66.3594 24.8672C66.7344 24.8672 67.1927 24.2474 67.7344 23.0078L68.3203 21.6641L62.8125 9.125H61.3438V6.625H70.0938V9.125H67.5234L70 14.75C70.3177 15.4896 70.5469 16.1146 70.6875 16.625C70.8281 16.1146 71.0573 15.4896 71.375 14.75L73.8438 9.125H71.6562V6.625H78.2188V9.125H76.5625L71.3438 21C71.0729 21.6146 70.8281 22.1432 70.6094 22.5859C70.3958 23.0339 70.1536 23.487 69.8828 23.9453C69.6172 24.4089 69.3594 24.7995 69.1094 25.1172C68.8594 25.4349 68.5755 25.737 68.2578 26.0234C67.9453 26.3099 67.6198 26.5365 67.2812 26.7031C66.9427 26.875 66.5677 27.0078 66.1562 27.1016C65.7448 27.2005 65.3021 27.25 64.8281 27.25C64.3854 27.25 63.9948 27.2135 63.6562 27.1406C63.3177 27.0729 63.0286 26.9688 62.7891 26.8281C62.5547 26.6927 62.3594 26.5443 62.2031 26.3828C62.0469 26.2266 61.8984 26.0391 61.7578 25.8203ZM85.2188 1.625H88.6562L96.1328 18.5H98.0312V21H88.0312V18.5H90.5312L89.4219 16H82.3594L81.3203 18.5H86.1562V21H76.1562V18.5H78.1953L85.2188 1.625ZM83.3984 13.5H88.3125L86.375 9.125C86.125 8.55208 85.9271 7.98958 85.7812 7.4375C85.5781 8.15625 85.3906 8.71875 85.2188 9.125L83.3984 13.5ZM99.5938 1.625H109.594V4.125H107.094V18.5H109.594V21H99.5938V18.5H102.094V4.125H99.5938V1.625Z" fill="#3B250D"/>
</svg>
